<?xml version="1.0" encoding="UTF-8"?>
<!DOCTYPE svg PUBLIC "-//W3C//DTD SVG 1.1//EN" "http://www.w3.org/Graphics/SVG/1.1/DTD/svg11.dtd">
<svg xmlns="http://www.w3.org/2000/svg" version="1.1" width="70px" height="57px" style="shape-rendering:geometricPrecision; text-rendering:geometricPrecision; image-rendering:optimizeQuality; fill-rule:evenodd; clip-rule:evenodd" xmlns:xlink="http://www.w3.org/1999/xlink">
<g><path style="opacity:1" fill="#15202b" d="M -0.5,-0.5 C 22.8333,-0.5 46.1667,-0.5 69.5,-0.5C 69.5,18.5 69.5,37.5 69.5,56.5C 46.1667,56.5 22.8333,56.5 -0.5,56.5C -0.5,37.5 -0.5,18.5 -0.5,-0.5 Z"/></g>
<g><path style="opacity:1" fill="#e4e6e7" d="M 16.5,12.5 C 20.3112,11.3547 24.3112,11.1881 28.5,12C 31.2855,15.074 33.9522,18.2407 36.5,21.5C 39.2894,18.2085 42.2894,15.0418 45.5,12C 47.1667,11.3333 48.8333,11.3333 50.5,12C 46.6441,16.3549 42.9774,20.8549 39.5,25.5C 43.8333,31.5 48.1667,37.5 52.5,43.5C 48.878,44.6586 45.2113,44.8253 41.5,44C 38.6667,40.5 35.8333,37 33,33.5C 29.9502,37.0945 26.7836,40.5945 23.5,44C 21.5,44.6667 19.5,44.6667 17.5,44C 22.1848,39.4495 26.5182,34.6161 30.5,29.5C 26.0535,23.5788 21.3868,17.9121 16.5,12.5 Z"/></g>
<g><path style="opacity:1" fill="#212b36" d="M 23.5,15.5 C 25.1534,14.2006 26.6534,14.5339 28,16.5C 33.9753,24.6427 40.142,32.6427 46.5,40.5C 45.3493,41.731 44.1827,41.731 43,40.5C 36.6363,31.9806 30.1363,23.6472 23.5,15.5 Z"/></g>
</svg>
